<?xml version="1.0" encoding="UTF-8" standalone="no"?>
<svg
   xmlns:dc="http://purl.org/dc/elements/1.1/"
   xmlns:cc="http://creativecommons.org/ns#"
   xmlns:rdf="http://www.w3.org/1999/02/22-rdf-syntax-ns#"
   xmlns:svg="http://www.w3.org/2000/svg"
   xmlns="http://www.w3.org/2000/svg"
   xmlns:sodipodi="http://sodipodi.sourceforge.net/DTD/sodipodi-0.dtd"
   xmlns:inkscape="http://www.inkscape.org/namespaces/inkscape"
   width="59.416168mm"
   height="59.518951mm"
   viewBox="0 0 59.416168 59.518951"
   version="1.1"
   id="svg8"
   inkscape:version="1.0.1 (3bc2e813f5, 2020-09-07)"
   sodipodi:docname="icon.svg">
  <defs
     id="defs2">
    <pattern
       id="EMFhbasepattern"
       patternUnits="userSpaceOnUse"
       width="6"
       height="6"
       x="0"
       y="0" />
  </defs>
  <sodipodi:namedview
     id="base"
     pagecolor="#ffffff"
     bordercolor="#666666"
     borderopacity="1.0"
     inkscape:pageopacity="0.0"
     inkscape:pageshadow="2"
     inkscape:zoom="0.49497475"
     inkscape:cx="-137.2254"
     inkscape:cy="216.99527"
     inkscape:document-units="mm"
     inkscape:current-layer="layer1"
     inkscape:document-rotation="0"
     showgrid="false"
     fit-margin-top="1"
     fit-margin-left="1"
     fit-margin-right="1"
     fit-margin-bottom="1"
     inkscape:window-width="1920"
     inkscape:window-height="1017"
     inkscape:window-x="-8"
     inkscape:window-y="-8"
     inkscape:window-maximized="1" />
  <metadata
     id="metadata5">
    <rdf:RDF>
      <cc:Work
         rdf:about="">
        <dc:format>image/svg+xml</dc:format>
        <dc:type
           rdf:resource="http://purl.org/dc/dcmitype/StillImage" />
        <dc:title></dc:title>
      </cc:Work>
    </rdf:RDF>
  </metadata>
  <g
     inkscape:label="Layer 1"
     inkscape:groupmode="layer"
     id="layer1"
     transform="translate(-110.44808,-34.30351)">
    <path
       style="fill:#f15622;fill-opacity:1;stroke-width:1"
       d="m 140.48738,76.699283 -0.52232,-2.165597 2.34963,-2.417665 c 1.2923,-1.329708 3.98538,-4.133773 5.98463,-6.231242 l 3.63501,-3.813598 -0.58457,-0.597802 c -0.96415,-0.985993 -5.37285,-4.853145 -5.64988,-4.955872 -0.43804,-0.162456 -0.75679,0.689369 -3.6173,9.666827 l -2.77601,8.712263 -1.54981,-0.632833 -1.5498,-0.632835 2.21935,-7.064408 c 1.22064,-3.885426 2.16969,-7.095987 2.10899,-7.134597 -0.0607,-0.03859 -3.02514,2.937093 -6.58763,6.612634 l -6.47725,6.682801 -0.74166,-0.493309 -0.74166,-0.493299 0.42336,-1.526379 c 0.52654,-1.898322 4.19209,-7.628748 7.18583,-11.233708 6.77682,-8.160433 14.19752,-13.381468 23.77851,-16.730012 3.63727,-1.27122 6.82797,-3.076633 9.36951,-5.301623 1.08389,-0.948873 2.02595,-1.688486 2.09347,-1.643577 0.28489,0.189491 -1.79869,4.364996 -2.92851,5.868724 -1.39388,1.855201 -3.9539,3.997675 -6.45002,5.398034 -2.36913,1.329113 -3.66603,2.398834 -4.60568,3.798895 -1.28395,1.913096 -1.66081,4.29582 -0.7565,4.783133 0.61635,0.33214 1.81801,0.301492 2.73723,-0.06983 1.26214,-0.50985 3.39518,-2.782868 4.12278,-4.393341 1.01595,-2.248734 1.07851,-1.078661 0.13042,2.439282 -1.86499,6.920129 -5.36493,12.462756 -12.31069,19.495679 -3.02487,3.062828 -4.56045,4.360736 -6.51047,5.502828 l -1.25672,0.73604 z"
       id="path53-3" />
    <path
       style="fill:#000000;stroke-width:1"
       id="path51"
       d="" />
    <g
       id="g75"
       transform="matrix(0.27408638,0,0,0.27408638,103.31126,44.581684)"
       style="stroke-width:3.64848">
      <path
         style="fill:#f9f9f9;stroke:#b3b3b3;stroke-width:0.965327px;stroke-linecap:butt;stroke-linejoin:miter;stroke-opacity:1"
         d="m 37.041666,167.06547 -4.535715,-11.15029 -0.377976,-68.79167 12.284226,-11.717261 13.418156,-5.291667 57.830353,0.566965 8.50447,4.535713 15.30803,9.260416 0.18899,76.351194 -10.77232,10.39434 -77.674106,1.7009 -10.583334,-2.26786 z"
         id="path71" />
      <path
         style="fill:#000000;stroke:none;stroke-width:3.64848"
         d="m 44.884969,175.57004 c -5.53594,-1.48345 -10.44364,-5.48302 -13.01464,-10.60641 -2.355811,-4.69456 -2.180298,-1.42552 -2.180298,-40.60946 0,-38.960508 -0.154687,-35.881121 2.026858,-40.348965 1.40637,-2.880268 2.96142,-4.899293 5.27029,-6.842789 1.78391,-1.501606 2.94194,-2.165566 7.12264,-4.083786 1.09141,-0.500766 3.53219,-1.630266 5.42396,-2.51 5.69518,-2.648439 2.50512,-2.438426 37.03914,-2.438426 34.271241,0 31.108041,-0.194938 36.382741,2.242155 1.67348,0.773211 4.65005,2.14784 6.61458,3.054731 4.39464,2.028706 5.41227,2.706623 7.97404,5.312065 1.69034,1.719159 2.26125,2.545183 3.49022,5.049772 0.80812,1.646923 1.62512,3.708778 1.81555,4.581903 0.27538,1.262624 0.34623,8.653587 0.34623,36.11563 0,38.21953 0.10995,35.66925 -1.70192,39.47467 -1.54319,3.2411 -2.19191,4.16129 -4.47171,6.34291 -2.63336,2.51998 -4.81997,3.89141 -7.84929,4.92305 l -2.11666,0.72084 -40.216671,0.044 c -37.64124,0.0412 -40.32799,0.0142 -41.95506,-0.42186 z m 79.882891,-5.60098 c 0.8843,-0.30827 1.62738,-1.25608 1.62738,-2.07577 0,-0.29294 -0.77391,-2.20477 -1.71979,-4.24849 -0.94589,-2.04372 -1.71979,-3.75644 -1.71979,-3.80605 0,-0.0496 -0.82531,-1.81551 -1.83403,-3.92424 l -1.83402,-3.83405 -1.93629,0.48598 c -1.82017,0.45684 -3.67367,0.48598 -30.908161,0.48598 -27.28802,0 -29.085,-0.0284 -30.91818,-0.48847 l -1.9463,-0.48847 -1.69172,3.56878 c -0.93044,1.96283 -1.69172,3.60361 -1.69172,3.64617 0,0.0426 -0.84688,1.90292 -1.88196,4.13412 -1.68388,3.62972 -1.85793,4.15418 -1.65365,4.98275 0.1681,0.68181 0.47255,1.04839 1.15436,1.38993 0.86979,0.43571 3.21099,0.46348 38.5406,0.45707 25.624251,-0.005 37.869161,-0.0956 38.413271,-0.28524 z m -83.093731,-4.14145 c 0.29334,-0.25466 1.21233,-1.9513 2.0422,-3.77031 0.82987,-1.81901 2.1452,-4.67651 2.92296,-6.35 2.07519,-4.46514 2.49155,-5.63287 2.19645,-6.16019 -0.34298,-0.61287 -1.16043,-1.01526 -1.66732,-0.82075 -0.23063,0.0885 -1.63824,2.01869 -3.12803,4.28932 -1.48978,2.27063 -3.45283,5.25792 -4.36234,6.63843 -2.08675,3.16742 -2.13294,3.7342 -0.44213,5.42501 1.33519,1.33519 1.6508,1.43208 2.43821,0.74849 z m 91.949821,-0.72315 c 1.64345,-1.5747 1.65916,-2.36611 0.0927,-4.67004 -0.62987,-0.92643 -2.42379,-3.66993 -3.98648,-6.09668 -2.88014,-4.47264 -3.87029,-5.77419 -4.3927,-5.77419 -0.15908,0 -0.57899,0.28975 -0.93313,0.64389 -0.623,0.623 -0.63118,0.67995 -0.25194,1.75481 0.21557,0.611 1.09466,2.6132 1.95354,4.44933 0.85887,1.83614 2.22266,4.76718 3.03064,6.51343 1.5114,3.26653 2.23643,4.36562 2.87981,4.36562 0.20325,0 0.92664,-0.53377 1.60752,-1.18617 z m -95.880641,-11.1831 c 0.73403,-1.12778 2.57477,-3.94217 4.09053,-6.25419 l 2.75594,-4.20367 -0.33679,-0.9557 c -0.93191,-2.64448 -0.97451,-4.19815 -0.88583,-32.30884 0.0769,-24.363251 0.13729,-27.814034 0.50848,-29.038026 0.23169,-0.763984 0.37442,-1.389063 0.31718,-1.389063 -0.61768,0 -2.72457,1.525157 -4.34601,3.146026 -2.86312,2.862133 -4.0468,5.374109 -4.48234,9.512303 -0.26424,2.510667 -0.34958,62.4464 -0.0899,63.12317 0.35588,0.9274 1.14051,0.4087 2.46872,-1.63201 z m 99.798571,-28.83958 c 0.0188,-16.98957 0.0117,-31.485428 -0.0158,-32.213033 -0.12801,-3.388918 -1.64236,-7.044479 -3.91168,-9.442554 -1.33487,-1.41061 -4.30667,-3.654322 -4.84015,-3.654322 -0.10165,0 0.004,0.625079 0.23525,1.389063 0.36996,1.223373 0.4293,4.70118 0.49748,29.156276 0.0692,24.80713 0.0315,27.99435 -0.35345,29.89792 -0.23698,1.17189 -0.48883,2.43791 -0.55967,2.81337 -0.10216,0.54147 0.56638,1.74525 3.23273,5.82083 4.78609,7.31565 4.64544,7.12255 5.18799,7.12255 0.47817,0 0.49422,-0.93986 0.52732,-30.8901 z m -19.66531,22.50963 c 2.71729,-1.114 4.93041,-3.31358 6.13742,-6.09988 l 0.66146,-1.52694 0.0767,-27.38171 c 0.0517,-18.466929 -0.0153,-27.974298 -0.20573,-29.201867 -0.73159,-4.715214 -4.39447,-8.392499 -9.13136,-9.16726 -0.9661,-0.158015 -12.46611,-0.26025 -29.379301,-0.261183 -29.89832,-0.0016 -29.22222,-0.0303 -31.93416,1.353227 -1.61322,0.823005 -3.9761,3.193727 -4.79363,4.809533 -0.39114,0.773094 -0.82708,2.113412 -0.96874,2.978481 -0.37204,2.271924 -0.3468,54.323039 0.0273,56.346839 0.80442,4.35148 4.24069,7.88375 8.35083,8.58413 0.70571,0.12025 14.43951,0.20138 30.51956,0.18027 l 29.236461,-0.0384 z M 79.544139,124.38957 c -2.44236,-0.43627 -3.15515,-0.95668 -3.15515,-2.30359 0,-1.24264 0.58855,-2.52653 1.25387,-2.73528 0.25626,-0.0804 1.12077,0.0288 1.92113,0.24269 2.07565,0.55468 4.04134,0.51669 4.5892,-0.0887 0.95971,-1.06046 0.39866,-1.76257 -2.25393,-2.82067 -2.85877,-1.14034 -4.01813,-2.00713 -4.80996,-3.59613 -0.38517,-0.77293 -0.70031,-1.69556 -0.70031,-2.05029 0,-2.40437 2.25405,-5.24218 4.74438,-5.9731 1.82172,-0.53468 5.07346,-0.54203 6.8466,-0.0155 1.58129,0.46959 1.85043,0.99786 1.38638,2.72123 -0.36877,1.36947 -0.97151,1.99515 -1.70587,1.77075 -0.30572,-0.0934 -1.36205,-0.23791 -2.34739,-0.32108 -1.49056,-0.12582 -1.87948,-0.0716 -2.3151,0.32261 -1.05662,0.95623 -0.67813,1.37119 2.55875,2.80531 1.24192,0.55025 2.67677,1.31982 3.18853,1.71016 2.45412,1.87185 2.55423,5.95424 0.20603,8.40114 -0.87917,0.91612 -2.50046,1.63665 -4.52467,2.01085 -1.83101,0.33848 -2.60894,0.32566 -4.88249,-0.0804 z m 20.701181,-0.0444 c -4.978061,-1.08051 -7.686961,-4.85172 -7.400831,-10.30313 0.1,-1.90447 0.25729,-2.52244 1.02556,-4.02826 1.18756,-2.32765 3.32062,-4.10287 5.8267,-4.84921 2.312051,-0.68856 6.063141,-0.71826 7.383901,-0.0585 0.85747,0.42836 0.92487,0.55078 0.91018,1.65324 -0.009,0.65484 -0.18961,1.54781 -0.40197,1.98437 -0.37989,0.78096 -0.42015,0.79402 -2.49768,0.81024 -2.91291,0.0228 -3.63184,0.24184 -4.54891,1.38629 -1.286131,1.60503 -1.464511,2.1153 -1.348941,3.85867 0.0802,1.20935 0.29333,1.89662 0.844451,2.72257 1.01588,1.52248 2.01947,1.93699 4.70161,1.94191 1.21494,0.002 2.35035,0.094 2.52315,0.20382 0.89598,0.56972 1.18337,3.4095 0.41343,4.08524 -0.4955,0.43488 -3.36002,1.01219 -4.85032,0.97752 -0.4974,-0.0116 -1.65855,-0.18473 -2.58033,-0.38481 z m -43.118001,-0.44082 c -0.23798,-0.23799 -0.3175,-3.44927 -0.3175,-12.82299 0,-12.093013 0.0169,-12.514513 0.51178,-12.779373 0.31711,-0.16972 3.27357,-0.27389 7.77281,-0.27389 6.20131,0 7.31017,0.0592 7.5977,0.40565 0.55516,0.66892 0.63959,2.832573 0.14767,3.783863 l -0.43313,0.83757 h -4.7557 -4.75571 v 2.51354 2.51354 h 4.34673 c 4.82548,0 5.01699,0.0618 5.32822,1.72084 0.25503,1.35947 -0.1822,2.84299 -0.95286,3.23295 -0.43511,0.22018 -1.99572,0.33138 -4.68719,0.33398 l -4.0349,0.004 v 2.77812 2.77813 l 2.4474,0.006 c 3.99845,0.01 7.72404,0.3021 7.93345,0.62259 0.10691,0.16362 0.19621,1.09266 0.19843,2.06453 0.006,2.7377 0.45748,2.59859 -8.42859,2.59859 -5.55919,0 -7.6864,-0.0853 -7.91861,-0.3175 z"
         id="path69" />
    </g>
  </g>
</svg>
